<mxfile host="app.diagrams.net" modified="2024-03-20T07:03:24.902Z" agent="5.0 (X11; Ubuntu)" etag="8VeU0qfqovGuTNlN_g5m" version="21.0.2" type="github">
  <diagram name="Page-1" id="3RMCWhl5PHncabbVMPHI">
    <mxGraphModel dx="1358" dy="766" grid="1" gridSize="10" guides="1" tooltips="1" connect="1" arrows="1" fold="1" page="1" pageScale="1" pageWidth="850" pageHeight="1100" math="0" shadow="0">
      <root>
        <mxCell id="0" />
        <mxCell id="1" parent="0" />
        <mxCell id="R-ZUeF_FnKZB5lgrU_ho-3" value="UC1" style="rounded=0;whiteSpace=wrap;html=1;" vertex="1" parent="1">
          <mxGeometry x="320" y="40" width="120" height="530" as="geometry" />
        </mxCell>
        <mxCell id="R-ZUeF_FnKZB5lgrU_ho-4" value="Install SDWAN-Controller-1" style="rounded=0;whiteSpace=wrap;html=1;" vertex="1" parent="1">
          <mxGeometry x="40" y="40" width="120" height="60" as="geometry" />
        </mxCell>
        <mxCell id="R-ZUeF_FnKZB5lgrU_ho-5" value="" style="endArrow=classic;html=1;rounded=0;exitX=1;exitY=0.5;exitDx=0;exitDy=0;" edge="1" parent="1" source="R-ZUeF_FnKZB5lgrU_ho-4">
          <mxGeometry width="50" height="50" relative="1" as="geometry">
            <mxPoint x="170" y="70" as="sourcePoint" />
            <mxPoint x="320" y="70" as="targetPoint" />
          </mxGeometry>
        </mxCell>
        <mxCell id="R-ZUeF_FnKZB5lgrU_ho-7" value="Install SDWAN-Controller-2" style="rounded=0;whiteSpace=wrap;html=1;" vertex="1" parent="1">
          <mxGeometry x="40" y="120" width="120" height="60" as="geometry" />
        </mxCell>
        <mxCell id="R-ZUeF_FnKZB5lgrU_ho-8" value="" style="endArrow=classic;html=1;rounded=0;exitX=1;exitY=0.5;exitDx=0;exitDy=0;" edge="1" parent="1">
          <mxGeometry width="50" height="50" relative="1" as="geometry">
            <mxPoint x="160" y="149.5" as="sourcePoint" />
            <mxPoint x="320" y="149.5" as="targetPoint" />
          </mxGeometry>
        </mxCell>
        <mxCell id="R-ZUeF_FnKZB5lgrU_ho-9" value="Patch&amp;nbsp;&lt;div style=&quot;color: rgb(0, 0, 0); background-color: rgb(255, 255, 254); font-weight: normal; font-size: 12px; line-height: 18px;&quot;&gt;&lt;div&gt;psk-auth-clients into&lt;br&gt;&lt;/div&gt;&lt;/div&gt; SDWAN-Controller-1" style="rounded=0;whiteSpace=wrap;html=1;" vertex="1" parent="1">
          <mxGeometry x="40" y="200" width="120" height="60" as="geometry" />
        </mxCell>
        <mxCell id="R-ZUeF_FnKZB5lgrU_ho-10" value="Patch&amp;nbsp;&lt;div style=&quot;color: rgb(0, 0, 0); background-color: rgb(255, 255, 254); font-weight: normal; font-size: 12px; line-height: 18px;&quot;&gt;&lt;div&gt;psk-auth-clients into&lt;br&gt;&lt;/div&gt;&lt;/div&gt; SDWAN-Controller-2" style="rounded=0;whiteSpace=wrap;html=1;" vertex="1" parent="1">
          <mxGeometry x="40" y="280" width="120" height="60" as="geometry" />
        </mxCell>
        <mxCell id="R-ZUeF_FnKZB5lgrU_ho-12" value="" style="endArrow=classic;html=1;rounded=0;exitX=1;exitY=0.5;exitDx=0;exitDy=0;" edge="1" parent="1">
          <mxGeometry width="50" height="50" relative="1" as="geometry">
            <mxPoint x="160" y="229.5" as="sourcePoint" />
            <mxPoint x="320" y="229.5" as="targetPoint" />
          </mxGeometry>
        </mxCell>
        <mxCell id="R-ZUeF_FnKZB5lgrU_ho-13" value="" style="endArrow=classic;html=1;rounded=0;exitX=1;exitY=0.5;exitDx=0;exitDy=0;" edge="1" parent="1">
          <mxGeometry width="50" height="50" relative="1" as="geometry">
            <mxPoint x="160" y="309.5" as="sourcePoint" />
            <mxPoint x="320" y="309.5" as="targetPoint" />
          </mxGeometry>
        </mxCell>
        <mxCell id="R-ZUeF_FnKZB5lgrU_ho-14" value="" style="endArrow=classic;html=1;rounded=0;exitX=1;exitY=0.5;exitDx=0;exitDy=0;" edge="1" parent="1">
          <mxGeometry width="50" height="50" relative="1" as="geometry">
            <mxPoint x="440" y="240" as="sourcePoint" />
            <mxPoint x="600" y="240" as="targetPoint" />
          </mxGeometry>
        </mxCell>
        <mxCell id="R-ZUeF_FnKZB5lgrU_ho-16" value="database" style="rounded=0;whiteSpace=wrap;html=1;" vertex="1" parent="1">
          <mxGeometry x="600" y="210" width="120" height="60" as="geometry" />
        </mxCell>
        <mxCell id="R-ZUeF_FnKZB5lgrU_ho-17" value="device SDWAN-Controller-1" style="rounded=0;whiteSpace=wrap;html=1;" vertex="1" parent="1">
          <mxGeometry x="730" y="250" width="120" height="60" as="geometry" />
        </mxCell>
        <mxCell id="R-ZUeF_FnKZB5lgrU_ho-18" value="database" style="rounded=0;whiteSpace=wrap;html=1;" vertex="1" parent="1">
          <mxGeometry x="600" y="290" width="120" height="60" as="geometry" />
        </mxCell>
        <mxCell id="R-ZUeF_FnKZB5lgrU_ho-19" value="device SDWAN-Controller-2" style="rounded=0;whiteSpace=wrap;html=1;" vertex="1" parent="1">
          <mxGeometry x="730" y="330" width="120" height="60" as="geometry" />
        </mxCell>
        <mxCell id="R-ZUeF_FnKZB5lgrU_ho-20" value="" style="endArrow=classic;html=1;rounded=0;exitX=1;exitY=0.5;exitDx=0;exitDy=0;" edge="1" parent="1">
          <mxGeometry width="50" height="50" relative="1" as="geometry">
            <mxPoint x="440" y="319" as="sourcePoint" />
            <mxPoint x="600" y="319" as="targetPoint" />
          </mxGeometry>
        </mxCell>
        <mxCell id="R-ZUeF_FnKZB5lgrU_ho-21" value="" style="endArrow=classic;html=1;rounded=0;exitX=1;exitY=0.5;exitDx=0;exitDy=0;entryX=-0.017;entryY=0.65;entryDx=0;entryDy=0;entryPerimeter=0;" edge="1" parent="1">
          <mxGeometry width="50" height="50" relative="1" as="geometry">
            <mxPoint x="442" y="361" as="sourcePoint" />
            <mxPoint x="730" y="360" as="targetPoint" />
          </mxGeometry>
        </mxCell>
        <mxCell id="R-ZUeF_FnKZB5lgrU_ho-22" value="" style="endArrow=classic;html=1;rounded=0;exitX=1;exitY=0.5;exitDx=0;exitDy=0;entryX=-0.017;entryY=0.65;entryDx=0;entryDy=0;entryPerimeter=0;" edge="1" parent="1">
          <mxGeometry width="50" height="50" relative="1" as="geometry">
            <mxPoint x="442" y="280.5" as="sourcePoint" />
            <mxPoint x="730" y="279.5" as="targetPoint" />
          </mxGeometry>
        </mxCell>
      </root>
    </mxGraphModel>
  </diagram>
</mxfile>
